<svg xmlns="http://www.w3.org/2000/svg" width="40" height="40" viewBox="0 0 40 40">
  <g id="Group_70" data-name="Group 70" transform="translate(0.116)">
    <circle id="Ellipse_28" data-name="Ellipse 28" cx="20" cy="20" r="20" transform="translate(-0.116)" fill="#accdea"/>
    <path id="Icon_awesome-twitter" data-name="Icon awesome-twitter" d="M18.183,7.483c.013.18.013.36.013.54A11.737,11.737,0,0,1,6.378,19.841,11.738,11.738,0,0,1,0,17.976a8.593,8.593,0,0,0,1,.051A8.319,8.319,0,0,0,6.16,16.253a4.161,4.161,0,0,1-3.884-2.881,5.238,5.238,0,0,0,.784.064A4.393,4.393,0,0,0,4.154,13.3,4.154,4.154,0,0,1,.823,9.219V9.168A4.183,4.183,0,0,0,2.7,9.695,4.16,4.16,0,0,1,1.415,4.139,11.807,11.807,0,0,0,9.979,8.486a4.689,4.689,0,0,1-.1-.952,4.158,4.158,0,0,1,7.189-2.842,8.178,8.178,0,0,0,2.636-1,4.142,4.142,0,0,1-1.826,2.289,8.327,8.327,0,0,0,2.392-.643,8.929,8.929,0,0,1-2.083,2.148Z" transform="translate(10.162 8.619)" fill="#173d7c"/>
  </g>
</svg>
