<svg xmlns="http://www.w3.org/2000/svg" width="40" height="40" viewBox="0 0 40 40">
  <g id="Group_71" data-name="Group 71" transform="translate(0.4)">
    <circle id="Ellipse_29" data-name="Ellipse 29" cx="20" cy="20" r="20" transform="translate(-0.4)" fill="#accdea"/>
    <path id="Icon_simple-instagram" data-name="Icon simple-instagram" d="M9.7,0C7.065,0,6.736.012,5.7.058A7.153,7.153,0,0,0,3.346.509,4.75,4.75,0,0,0,1.628,1.628,4.733,4.733,0,0,0,.509,3.346,7.132,7.132,0,0,0,.058,5.7C.01,6.736,0,7.065,0,9.7s.012,2.964.058,4a7.157,7.157,0,0,0,.451,2.355,4.757,4.757,0,0,0,1.119,1.719,4.743,4.743,0,0,0,1.719,1.119,7.161,7.161,0,0,0,2.355.451c1.035.048,1.364.058,4,.058s2.964-.012,4-.058a7.178,7.178,0,0,0,2.355-.451,4.957,4.957,0,0,0,2.837-2.837,7.157,7.157,0,0,0,.451-2.355c.049-1.035.058-1.364.058-4s-.012-2.964-.058-4a7.174,7.174,0,0,0-.451-2.355,4.761,4.761,0,0,0-1.119-1.719A4.726,4.726,0,0,0,16.053.509,7.136,7.136,0,0,0,13.7.058C12.664.01,12.335,0,9.7,0Zm0,1.746c2.589,0,2.9.013,3.92.057a5.344,5.344,0,0,1,1.8.335,3.192,3.192,0,0,1,1.841,1.841,5.356,5.356,0,0,1,.334,1.8c.046,1.023.057,1.331.057,3.92s-.012,2.9-.06,3.92a5.459,5.459,0,0,1-.34,1.8,3.08,3.08,0,0,1-.727,1.117,3.026,3.026,0,0,1-1.115.724A5.4,5.4,0,0,1,13.6,17.6c-1.03.046-1.333.057-3.928.057s-2.9-.012-3.928-.06a5.5,5.5,0,0,1-1.807-.34,3,3,0,0,1-1.115-.727A2.945,2.945,0,0,1,2.1,15.41,5.5,5.5,0,0,1,1.759,13.6c-.036-1.018-.049-1.333-.049-3.916s.013-2.9.049-3.929A5.5,5.5,0,0,1,2.1,3.953a2.875,2.875,0,0,1,.727-1.116,2.869,2.869,0,0,1,1.115-.726,5.369,5.369,0,0,1,1.8-.34c1.031-.036,1.334-.048,3.928-.048l.036.024Zm0,2.973A4.981,4.981,0,1,0,14.681,9.7,4.981,4.981,0,0,0,9.7,4.719Zm0,8.214A3.233,3.233,0,1,1,12.933,9.7,3.232,3.232,0,0,1,9.7,12.933Zm6.342-8.411a1.164,1.164,0,1,1-1.164-1.163A1.165,1.165,0,0,1,16.042,4.523Z" transform="translate(10.3 10.3)" fill="#173d7c"/>
  </g>
</svg>
