<svg xmlns="http://www.w3.org/2000/svg" width="93" height="40" viewBox="0 0 93 40">
  <g id="Group_2341" data-name="Group 2341" transform="translate(-940 -6827)">
    <rect id="_1280px-Hyatt_Logo.svg" data-name="1280px-Hyatt_Logo.svg" width="93" height="40" transform="translate(940 6827)" fill="#d5edff"/>
    <g id="Hilton_Worldwide_logo" transform="translate(954.289 7257.045)">
      <path id="Path_2907" data-name="Path 2907" d="M0-410.045v11.955H64.422V-422H0Zm63.345,0v10.879l-31.117-.011L1.1-399.195l-.017-10.867-.011-10.862H63.345Z" fill="#173d7c"/>
      <path id="Path_2908" data-name="Path 2908" d="M98-324.694v.306l.244.04c.13.017.323.051.425.068l.181.028-.011,5.706-.017,5.7-.408.045L98-312.75v.669h4.306v-.669l-.408-.051-.414-.045-.017-2.6-.011-2.589h5.666v2.572a10.7,10.7,0,0,1-.079,2.6,3.5,3.5,0,0,1-.482.074l-.4.04v.663h4.419v-.669l-.38-.04a3.638,3.638,0,0,1-.453-.068,55.919,55.919,0,0,1-.074-5.711v-5.683l.227-.034c.125-.017.329-.051.453-.068l.227-.034V-325h-4.419v.612l.272.034c.147.023.363.051.482.068l.21.034v4.861h-5.666v-4.861l.244-.04c.669-.1.606-.062.606-.4V-325H98Z" transform="translate(-92.447 -91.504)" fill="#173d7c"/>
      <path id="Path_2909" data-name="Path 2909" d="M367.7-324.9a1.272,1.272,0,0,0,.629,2.391,1.217,1.217,0,0,0,.975-.448,1.227,1.227,0,0,0-.006-1.654A1.27,1.27,0,0,0,367.7-324.9Z" transform="translate(-346.227 -91.447)" fill="#173d7c"/>
      <path id="Path_2910" data-name="Path 2910" d="M457-324.722v.278l.385.045.38.051.017,5.791.011,5.785-.153.034c-.091.017-.266.045-.4.062l-.244.04v.555h4.023v-.555l-.238-.04c-.136-.017-.312-.045-.4-.062l-.159-.034V-325H457Z" transform="translate(-431.107 -91.504)" fill="#173d7c"/>
      <path id="Path_2911" data-name="Path 2911" d="M545.907-305.544l-1.15.346v1.955H543v.85h1.694l.017,3.439c.023,3.83.023,3.79.414,4.334.595.816,2.374.9,4.493.21l.351-.119v-.623l-.17.04a6.987,6.987,0,0,1-.9.04c-1.031.006-1.36-.119-1.609-.623l-.13-.266-.017-3.218-.017-3.213h2.159v-.85h-2.153v-1.331a10.88,10.88,0,0,0-.04-1.326C547.068-305.9,546.536-305.736,545.907-305.544Z" transform="translate(-512.234 -109.521)" fill="#173d7c"/>
      <path id="Path_2912" data-name="Path 2912" d="M678.265-263.6a5.774,5.774,0,0,0-2.5,1.009,4.717,4.717,0,0,0-1.519,2.385,8.495,8.495,0,0,0-.091,2.8,3.961,3.961,0,0,0,1.111,2.329,4.582,4.582,0,0,0,3.286,1.167,5.155,5.155,0,0,0,3.91-1.263,4.366,4.366,0,0,0,1.4-3.247,5.841,5.841,0,0,0-.289-2.278,3.662,3.662,0,0,0-1.026-1.66,3.1,3.1,0,0,0-.992-.725,4.933,4.933,0,0,0-2.295-.521C678.82-263.614,678.372-263.608,678.265-263.6Zm1.02.7a1.909,1.909,0,0,1,1.445,1.218,6.418,6.418,0,0,1,.482,2.941c0,2.839-.691,4.119-2.238,4.125a1.654,1.654,0,0,1-1.314-.516c-.72-.737-1.071-2.448-.924-4.453s.754-3.1,1.83-3.315A1.408,1.408,0,0,1,679.284-262.895Z" transform="translate(-635.883 -149.417)" fill="#173d7c"/>
      <path id="Path_2913" data-name="Path 2913" d="M870.074-262.761a5.262,5.262,0,0,0-2.323,1.043,2.917,2.917,0,0,1-.47.312,1.775,1.775,0,0,1-.051-.595v-.595H864v.612l.272.034c.147.023.334.051.425.068l.153.034v7.74l-.323.034c-.527.062-.527.062-.527.38v.278h4.08v-.283c0-.159-.017-.283-.04-.289s-.21-.034-.414-.074l-.368-.062V-260.7l.283-.187a4.966,4.966,0,0,1,.737-.363,2.036,2.036,0,0,1,.963-.187,1.289,1.289,0,0,1,1.116.408c.448.47.51,1,.487,4.323l-.017,2.578-.368.062c-.2.04-.385.068-.408.074s-.045.13-.045.289v.283h4.079v-.278c0-.317,0-.317-.521-.374l-.323-.04-.017-3.3c-.017-3.264-.023-3.3-.153-3.689a2.246,2.246,0,0,0-.686-1.122,2.348,2.348,0,0,0-1.326-.55A2.513,2.513,0,0,0,870.074-262.761Z" transform="translate(-815.046 -150.168)" fill="#173d7c"/>
      <path id="Path_2914" data-name="Path 2914" d="M354-258.722v.278l.272.034c.147.023.334.051.425.068l.153.034-.011,3.887-.017,3.892-.368.062c-.2.04-.385.068-.408.074s-.045.13-.045.289v.283h4.085l-.017-.261c-.023-.312-.062-.346-.51-.391l-.329-.034V-259H354Z" transform="translate(-333.943 -153.764)" fill="#173d7c"/>
    </g>
  </g>
</svg>
