<svg xmlns="http://www.w3.org/2000/svg" xmlns:xlink="http://www.w3.org/1999/xlink" width="65.558" height="26.548" viewBox="0 0 65.558 26.548">
  <defs>
    <clipPath id="clip-path">
      <rect id="Rectangle_1263" data-name="Rectangle 1263" width="65.558" height="26.548" fill="#173d7c"/>
    </clipPath>
  </defs>
  <g id="Group_2338" data-name="Group 2338" transform="translate(475 143)">
    <g id="Group_2211" data-name="Group 2211" transform="translate(-475 -143)" clip-path="url(#clip-path)">
      <path id="Path_2824" data-name="Path 2824" d="M134.571,11.023h-.745c-3.865,0-7.73-.011-11.595.009-.522,0-.69-.122-.684-.667.025-2.456.014-4.912-.01-7.368,0-.462.117-.629.6-.627q5.8.025,11.595,0c.454,0,.582.151.583.593.006,1.5.021,1.5-1.474,1.505-2.617,0-5.234.011-7.851-.011-.519,0-.745.091-.746.684s.253.645.726.642c2.4-.017,4.791-.01,7.186-.011h.78a16.554,16.554,0,0,1-.024,1.685c-.013.119-.33.292-.509.3-1.469.024-2.939.014-4.408.014-1.047,0-2.094.015-3.14-.009-.429-.01-.605.1-.61.569,0,.49.167.607.63.6,2.979-.018,5.959-.009,8.938-.008h.753Z" transform="translate(-106.848 -2.083)" fill="#173d7c"/>
      <path id="Path_2825" data-name="Path 2825" d="M84.392,94.284c-1.376-.158-2.694-.206-3.964-.478-2.218-.474-3.014-1.618-2.915-3.887.1-2.213.916-3.3,3.078-3.794a17.723,17.723,0,0,1,8.2.036,3.073,3.073,0,0,1,2.658,3.371c.005.221,0,.443,0,.665-.084,2.064-.9,3.142-2.928,3.561-1.371.284-2.785.361-4.123.525m-.072-6.748c-.809.087-1.838.138-2.839.334A2.076,2.076,0,0,0,80.3,88.6a2.256,2.256,0,0,0,1.54,3.563,42.629,42.629,0,0,0,5.3-.007,2.224,2.224,0,0,0,1.454-.72,2.3,2.3,0,0,0-1.463-3.686c-.854-.12-1.723-.137-2.8-.217" transform="translate(-68.138 -75.31)" fill="#173d7c"/>
      <path id="Path_2826" data-name="Path 2826" d="M380.148,7.741l1.759,3.632c-.953,0-1.789.018-2.622-.018-.135-.006-.3-.236-.38-.4-.351-.7-.67-1.419-1.014-2.125a4.553,4.553,0,0,0-.332-.506l-.172.039a5.133,5.133,0,0,0-.08.6c-.012.644.013,1.29-.024,1.933-.009.164-.185.45-.3.456-.738.041-1.479.021-2.252.021-.018-.24-.041-.415-.042-.59-.007-2.478.005-4.955-.029-7.433-.008-.548.169-.687.688-.666,1.246.051,2.5.009,3.742.084a2.2,2.2,0,0,1,2.229,1.706,2.785,2.785,0,0,1-.928,3.049c-.077.062-.15.129-.247.213m-2.83-1.218a5,5,0,0,0,1.029-.295.8.8,0,0,0,.294-1.063c-.176-.473-.614-.476-1.02-.426-.479.06-.262.466-.294.726a9.711,9.711,0,0,0-.008,1.058" transform="translate(-329.384 -2.362)" fill="#173d7c"/>
      <path id="Path_2827" data-name="Path 2827" d="M4.584,90.666c.589-.914,1.149-1.722,1.639-2.569a1.037,1.037,0,0,1,1.118-.6c.474.045.955.009,1.473.009v7.806H6.675V91.152L6.518,91.1l-1.97,2.91-1.984-3.01c-.035.349-.068.528-.069.707-.007,1.046-.019,2.093,0,3.139.006.392-.136.538-.528.52-.519-.024-1.04-.006-1.6-.006-.021-.234-.049-.41-.049-.586,0-2.214.014-4.427-.008-6.641-.005-.506.176-.591.651-.656a2.106,2.106,0,0,1,2.505,1.386,14.327,14.327,0,0,0,1.122,1.8" transform="translate(-0.268 -76.879)" fill="#173d7c"/>
      <path id="Path_2828" data-name="Path 2828" d="M480.7,4.01c-.235-1.206-.522-1.521-1.318-1.529a1.337,1.337,0,0,0-1.409,1.005,4.874,4.874,0,0,0-.047,2.857,1.356,1.356,0,0,0,1.392,1.112c.685.017,1.035-.253,1.311-1.006.034-.092.081-.18.141-.311l2.293.363a2.715,2.715,0,0,1-1.419,2.407,4.983,4.983,0,0,1-4.967.021,3.137,3.137,0,0,1-1.531-2.218,6.53,6.53,0,0,1,.129-3.691A3.555,3.555,0,0,1,478.346.461,7.712,7.712,0,0,1,480.9.582a2.824,2.824,0,0,1,2.159,2.793c0,.147-.14.415-.243.429-.692.1-1.391.142-2.117.206" transform="translate(-417.545 -0.357)" fill="#173d7c"/>
      <path id="Path_2829" data-name="Path 2829" d="M238.211,3.648c-.31-1.282-.577-1.554-1.433-1.525a1.274,1.274,0,0,0-1.348,1.141,10.288,10.288,0,0,0-.033,2.567A1.3,1.3,0,0,0,236.764,7.1c.724.035,1.079-.241,1.389-1.077.021-.056.044-.11.095-.235l2.273.354a2.918,2.918,0,0,1-2.052,2.743,5.441,5.441,0,0,1-3.785-.05,3.127,3.127,0,0,1-1.955-2.153,6.759,6.759,0,0,1-.083-3.639A3.891,3.891,0,0,1,236.7,0a5.987,5.987,0,0,1,2.271.468,2.775,2.775,0,0,1,1.593,2.582.507.507,0,0,1-.289.4c-.674.1-1.355.136-2.061.2" transform="translate(-204.344 -0.001)" fill="#173d7c"/>
      <path id="Path_2830" data-name="Path 2830" d="M265.231,87.823c.822,0,1.585-.022,2.344.018.157.008.363.219.443.386.546,1.143,1.063,2.3,1.592,3.45a.946.946,0,0,0,.362.44c0-1.056-.006-2.111,0-3.167.009-1.327-.139-1.1,1.111-1.129a2.362,2.362,0,0,0,.3,0c.522-.079.69.116.682.66-.032,2.172-.014,4.346-.016,6.518,0,.2-.019.393-.034.67-.811,0-1.59.023-2.364-.02-.151-.008-.338-.247-.423-.422-.523-1.064-1.02-2.141-1.528-3.212a1.1,1.1,0,0,0-.406-.491c0,1.056.005,2.111,0,3.167-.007,1.111.1.966-.955.983-.357.006-.714,0-1.109,0Z" transform="translate(-233.176 -77.19)" fill="#173d7c"/>
      <path id="Path_2831" data-name="Path 2831" d="M486.075,95.726V87.932c.82,0,1.6-.023,2.378.02.149.008.333.255.417.431.517,1.089,1.009,2.191,1.511,3.287a1.542,1.542,0,0,0,.386.554V87.988h2.075c.013.173.041.367.041.56,0,2.193-.024,4.387,0,6.579.007.547-.171.709-.69.663a7.873,7.873,0,0,0-1.387,0,.721.721,0,0,1-.809-.534c-.485-1.082-1.008-2.147-1.518-3.217a1.056,1.056,0,0,0-.338-.433v4.119Z" transform="translate(-427.329 -77.3)" fill="#173d7c"/>
      <path id="Path_2832" data-name="Path 2832" d="M6.251,8.915V10.89H.079C.065,10.7.041,10.5.04,10.305.029,7.87.037,5.434,0,3c-.009-.567.175-.721.722-.709,1.549.033,3.1.027,4.648.008.452-.006.64.109.641.6,0,1.5.023,1.5-1.491,1.5-.463,0-.927.021-1.388,0-.53-.028-.447.336-.447.648s-.1.678.434.662c.623-.018,1.248.009,1.871-.006.328-.008.453.1.472.447.086,1.55.1,1.55-1.42,1.55a5.212,5.212,0,0,1-.664,0c-.548-.071-.758.131-.717.7.027.387.187.468.525.465.926-.01,1.851,0,2.777,0a1.873,1.873,0,0,1,.289.056" transform="translate(0 -2.013)" fill="#173d7c"/>
      <path id="Path_2833" data-name="Path 2833" d="M205.637,87.862c0,1.93.065,3.762-.023,5.588a2.426,2.426,0,0,1-2.269,2.3,8.049,8.049,0,0,1-2.331-.06,1.981,1.981,0,0,1-1.8-1.856c-.109-1.958-.032-3.927-.032-5.969.6,0,1.233,0,1.87,0,.427,0,.342.311.344.556.012,1.51.012,3.02.025,4.529,0,.524.148.963.763,1.053.767.111,1.149-.182,1.165-.983.03-1.509.042-3.02.016-4.529-.009-.513.158-.671.652-.635.517.038,1.038.008,1.618.008" transform="translate(-175.087 -77.231)" fill="#173d7c"/>
      <path id="Path_2834" data-name="Path 2834" d="M381.312,90.282c-.4,1.616-.822,3.229-1.2,4.851-.1.439-.259.654-.749.616-.576-.045-1.158-.011-1.824-.011.152-.505.273-.925.4-1.341.633-2.013,1.278-4.022,1.894-6.04.107-.349.253-.495.626-.479.643.028,1.288-.013,1.93.022a.656.656,0,0,1,.5.291c.9,2.472,1.765,4.955,2.677,7.54-.836,0-1.589.022-2.338-.022-.123-.007-.279-.3-.335-.481-.441-1.462-.86-2.931-1.288-4.4-.056-.191-.12-.379-.18-.568l-.114.02" transform="translate(-331.909 -77.256)" fill="#173d7c"/>
      <path id="Path_2835" data-name="Path 2835" d="M307.309,11.383c0-.6,0-1.1,0-1.6,0-1.45-.022-2.9-.008-4.349,0-.435-.131-.628-.586-.6s-.886-.007-1.328.008c-.346.012-.5-.1-.519-.477-.1-1.661-.11-1.661,1.562-1.663,1.752,0,3.5.012,5.255-.012.465-.006.63.126.631.61,0,1.539.021,1.539-1.517,1.54-.89,0-.889,0-.891.873,0,1.691-.025,3.383,0,5.074.007.492-.16.628-.625.6-.62-.034-1.242-.008-1.973-.008" transform="translate(-267.99 -2.366)" fill="#173d7c"/>
      <path id="Path_2836" data-name="Path 2836" d="M64.108,8.813h3.352V10.89H61.582c-.014-.193-.04-.384-.04-.575-.008-2.453,0-4.905-.027-7.357-.005-.484.113-.707.632-.658.631.059,1.473-.155,1.838.175.319.288.117,1.168.12,1.786.009,1.484,0,2.967,0,4.553" transform="translate(-54.08 -2.009)" fill="#173d7c"/>
      <path id="Path_2837" data-name="Path 2837" d="M335.031,89.808h-2.167V95.7H330.5V89.818h-2.158V87.946a3.909,3.909,0,0,1,.453-.051c1.89,0,3.78.011,5.67-.013.456-.006.611.14.576.586-.032.415-.007.835-.007,1.34" transform="translate(-288.657 -77.26)" fill="#173d7c"/>
      <path id="Path_2838" data-name="Path 2838" d="M445.72,7.261c0,1.246-.018,2.493.009,3.739.01.458-.147.6-.591.574a14.178,14.178,0,0,0-1.507,0c-.355.014-.506-.1-.506-.478q0-3.829-.025-7.659c0-.384.134-.548.527-.533.522.02,1.046.021,1.567,0,.426-.021.555.153.549.566-.02,1.266-.007,2.533-.007,3.8Z" transform="translate(-389.549 -2.545)" fill="#173d7c"/>
      <path id="Path_2839" data-name="Path 2839" d="M454.375,87.863c0,2.569.005,5.022-.015,7.476a.5.5,0,0,1-.328.358c-.64.036-1.283.017-1.965.017a4.7,4.7,0,0,1-.058-.5c-.005-2.254,0-4.508-.015-6.762,0-.433.1-.624.57-.594.576.036,1.156.009,1.811.009" transform="translate(-397.366 -77.234)" fill="#173d7c"/>
      <path id="Path_2840" data-name="Path 2840" d="M207.961,178.965a5.478,5.478,0,0,1-.866.115c-.159,0-.313-.139-.473-.209a3.669,3.669,0,0,0-.665-.262c-.067-.015-.177.167-.267.258a3.09,3.09,0,0,0,.559.46,8.482,8.482,0,0,0,.857.279,1.288,1.288,0,0,1,.94,1.262,1.444,1.444,0,0,1-.849,1.47,2.779,2.779,0,0,1-2.172.077,1.3,1.3,0,0,1-.865-1.465,3.735,3.735,0,0,1,.806-.121c.17.009.336.169.5.273.2.133.389.365.6.392.177.022.383-.192.576-.3-.133-.153-.238-.371-.406-.446-.326-.147-.693-.2-1.034-.317a1.269,1.269,0,0,1-.946-1.194,1.411,1.411,0,0,1,.776-1.451,2.557,2.557,0,0,1,2.271-.032,1.209,1.209,0,0,1,.659,1.212" transform="translate(-179.485 -156.05)" fill="#173d7c"/>
      <path id="Path_2841" data-name="Path 2841" d="M301.635,182.879a1.233,1.233,0,0,1-.146.045c-1.789.107-1.792.108-2.312-1.58-.325-1.054-.639-2.111-.992-3.28a8.952,8.952,0,0,1,1.383.024c.154.025.33.305.383.5a26.792,26.792,0,0,0,.8,2.7c.139-.525.28-1.049.417-1.575.056-.214.1-.43.155-.645.275-1.107.462-1.212,1.713-.893l-1.4,4.708" transform="translate(-262.146 -156.5)" fill="#173d7c"/>
      <path id="Path_2842" data-name="Path 2842" d="M342.067,183.179a7.666,7.666,0,0,1-1.263-.021.733.733,0,0,1-.424-.456c-.292-.91-.542-1.834-.807-2.754l-.157-.012c-.191.765-.38,1.531-.573,2.3-.246.979-.248.979-1.258.95-.138,0-.276-.024-.5-.044.352-1.122.692-2.207,1.032-3.291.06-.192.117-.384.177-.576.316-1.007.316-.979,1.4-1.006a.807.807,0,0,1,.929.682c.376,1.207.833,2.389,1.253,3.582.065.183.109.374.188.652" transform="translate(-296.349 -156.719)" fill="#173d7c"/>
      <path id="Path_2843" data-name="Path 2843" d="M173.924,182.06V183.2h-3.454c0-.736,0-1.453,0-2.17s.006-1.448,0-2.173c0-.309.074-.5.434-.491.824.013,1.649.01,2.474,0,.3,0,.446.112.424.427-.015.218,0,.437,0,.738h-1.809l-.041.717c.249.018.46.044.67.046,1,.011,1,.019.818,1.118-.318,0-.653.016-.986,0-.437-.026-.6.135-.416.646Z" transform="translate(-149.864 -156.813)" fill="#173d7c"/>
      <path id="Path_2844" data-name="Path 2844" d="M137.878,179.408v.837h1.512c-.088.43.324.935-.293,1.109a5.014,5.014,0,0,1-1.258.019V183.1h-1.475c0-.368,0-.721,0-1.074,0-1.007.045-2.017-.013-3.02-.037-.648.212-.8.795-.758.541.041,1.087.008,1.631.008,1.022,0,1.029.009.835,1.151Z" transform="translate(-119.868 -156.7)" fill="#173d7c"/>
      <path id="Path_2845" data-name="Path 2845" d="M244.495,179.462l-1.268.062v3.617h-1.471c0-.626,0-1.259,0-1.892a7.384,7.384,0,0,1,.01-.964c.084-.633-.16-.892-.791-.8-.446.066-.584-.136-.592-.579-.009-.484.164-.63.631-.615.863.029,1.728.008,2.592.009,1.073,0,1.073,0,.89,1.161" transform="translate(-211.329 -156.743)" fill="#173d7c"/>
      <path id="Path_2846" data-name="Path 2846" d="M384.112,178.485c1.437-.2,1.438-.2,1.442,1.11,0,.8,0,1.6,0,2.437l1.218.058v1.192c-.8,0-1.594.011-2.386-.014-.095,0-.262-.2-.263-.306-.018-1.481-.012-2.963-.012-4.476" transform="translate(-337.688 -156.827)" fill="#173d7c"/>
      <path id="Path_2847" data-name="Path 2847" d="M282.564,182.9h-1.437c0-1.52-.008-3,.016-4.486,0-.122.217-.324.356-.346.973-.154,1.065-.062,1.064.913,0,1.285,0,2.569,0,3.919" transform="translate(-247.15 -156.493)" fill="#173d7c"/>
    </g>
  </g>
</svg>
