<svg xmlns="http://www.w3.org/2000/svg" width="93" height="40" viewBox="0 0 93 40">
  <g id="Group_2339" data-name="Group 2339" transform="translate(-616 -6827)">
    <rect id="_1280px-Hyatt_Logo.svg" data-name="1280px-Hyatt_Logo.svg" width="93" height="40" transform="translate(616 6827)" fill="#accdea" opacity="0"/>
    <g id="layer1" transform="translate(566.218 6669.588)">
      <g id="g5692" transform="translate(0.132 -0.132)">
        <path id="path2987" d="M104.625,182.613c0,.207-.168.316-.445.316h-.672V182.3h.642c.32,0,.474.115.474.309Zm-1.117-1.27h.583c.26,0,.405.112.405.293v.007c0,.21-.175.312-.435.312h-.553Zm1.064.747a.548.548,0,0,0,.329-.513v-.007a.515.515,0,0,0-.155-.382.833.833,0,0,0-.6-.2H103.11v2.3h1.067c.514,0,.853-.221.853-.632v-.007a.565.565,0,0,0-.458-.559" fill="#173d7c"/>
        <path id="path2993" d="M106.737,182l-.646-1.019h-.478l.916,1.394v.908h.409v-.918l.916-1.385h-.465Z" fill="#173d7c"/>
        <path id="path2999" d="M117.57,181.93a.342.342,0,0,1-.26.1h-.461v-.672h.461a.352.352,0,0,1,.254.094.323.323,0,0,1,.1.243.332.332,0,0,1-.092.237m.442.134a.771.771,0,0,0,.1-.388.691.691,0,0,0-.044-.233.66.66,0,0,0-.138-.225.71.71,0,0,0-.247-.168.94.94,0,0,0-.373-.066h-.879V183.3h.422v-.915h.44l.47.915h.495l-.537-.971a.684.684,0,0,0,.294-.27" fill="#173d7c"/>
        <path id="path3003" d="M122.174,183.3h.439v-2.321h-.439Z" fill="#173d7c"/>
        <path id="path3009" d="M120.389,181.93a.34.34,0,0,1-.26.1h-.461v-.672h.461a.353.353,0,0,1,.255.094.325.325,0,0,1,.1.243.331.331,0,0,1-.093.237m.443.134a.774.774,0,0,0,.1-.388.69.69,0,0,0-.043-.233.661.661,0,0,0-.138-.225.708.708,0,0,0-.248-.168.94.94,0,0,0-.373-.066h-.879V183.3h.422v-.915h.44l.47.915h.495l-.537-.971a.685.685,0,0,0,.295-.27" fill="#173d7c"/>
        <path id="path3015" d="M111.888,180.983l-.688,1.1-.7-1.1h-.408l-.111,2.321h.411l.076-1.583.615.922h.205l.612-.946.077,1.607h.428l-.112-2.321Z" fill="#173d7c"/>
        <path id="path3021" d="M125.578,182.445a.807.807,0,0,1-.15.263.724.724,0,0,1-1.094,0,.8.8,0,0,1-.15-.263.965.965,0,0,1,0-.628.787.787,0,0,1,.15-.259.709.709,0,0,1,.235-.176.782.782,0,0,1,.622,0,.709.709,0,0,1,.237.176.792.792,0,0,1,.15.259.972.972,0,0,1,0,.628m.161-1.167a1.223,1.223,0,0,0-.384-.261,1.171,1.171,0,0,0-.474-.1,1.2,1.2,0,0,0-.859.357,1.234,1.234,0,0,0-.257.388,1.255,1.255,0,0,0,0,.953,1.238,1.238,0,0,0,.258.39,1.2,1.2,0,0,0,.383.263,1.22,1.22,0,0,0,.948,0,1.2,1.2,0,0,0,.384-.263,1.233,1.233,0,0,0,.258-.39,1.234,1.234,0,0,0-.258-1.341" fill="#173d7c"/>
        <path id="path3027" d="M129.422,181.37h.788V183.3h.439V181.37h.788v-.386h-2.014Z" fill="#173d7c"/>
        <path id="path3033" d="M114.074,182.354l.31-.9.307.9Zm.1-1.371-.882,2.32h.46l.2-.588h.864l.2.588h.488l-.882-2.32Z" fill="#173d7c"/>
        <path id="path3039" d="M126.664,181.37h.787V183.3h.439V181.37h.787v-.386h-2.014Z" fill="#173d7c"/>
      </g>
      <g id="g5680" transform="translate(0.132 -0.132)">
        <path id="path3045" d="M61.916,177.792a2.366,2.366,0,0,1-2.359-2.5,2.282,2.282,0,0,1,2.349-2.4,3.091,3.091,0,0,1,1.915.739l.612-.946a3.628,3.628,0,0,0-2.586-.956,3.617,3.617,0,0,0,.02,7.233,3.773,3.773,0,0,0,2.754-1.133l-.671-.916a3.02,3.02,0,0,1-2.033.887" fill="#173d7c"/>
        <path id="path3051" d="M70.257,177.792a2.373,2.373,0,0,1-2.31-2.5,2.311,2.311,0,1,1,4.619,0,2.373,2.373,0,0,1-2.31,2.5m0-6.07a3.538,3.538,0,0,0-3.622,3.567,3.623,3.623,0,1,0,7.244,0,3.538,3.538,0,0,0-3.622-3.567" fill="#173d7c"/>
        <path id="path3057" d="M80.811,176.314a1.557,1.557,0,0,1-3.109.01V171.84H76.429v4.484a2.835,2.835,0,0,0,5.655,0V171.84H80.811Z" fill="#173d7c"/>
        <path id="path3063" d="M87.678,175.122H86.534v-2.187H87.5c1,0,1.283.414,1.283,1.084a1.016,1.016,0,0,1-1.105,1.1m1.214.759v-.02a2.014,2.014,0,0,0,1.184-1.912,1.976,1.976,0,0,0-1.145-1.912,3.258,3.258,0,0,0-1.411-.2H85.26v7h1.273v-2.611h1.224l1.392,2.611H90.57l-1.441-2.611a1.708,1.708,0,0,0-.237-.345" fill="#173d7c"/>
        <path id="path3069" d="M92.452,172.934h2.3v5.9h1.273v-5.9h2.3V171.84H92.452Z" fill="#173d7c"/>
        <path id="path3075" d="M104.363,178.837V175.91l2.329-4.07h-1.441l-1.086,2.06c-.227.434-.424.936-.424.936h-.02c-.01.01-.2-.5-.424-.936l-1.1-2.06h-1.441l2.329,4.07v2.927Z" fill="#173d7c"/>
        <path id="path3081" d="M119.9,175.122h-1.145v-2.187h.967c1,0,1.283.414,1.283,1.084a1.016,1.016,0,0,1-1.105,1.1m1.214.759v-.02a2.014,2.014,0,0,0,1.184-1.912,1.976,1.976,0,0,0-1.145-1.912,3.259,3.259,0,0,0-1.411-.2h-2.26v7h1.273v-2.611h1.224l1.392,2.611h1.421l-1.441-2.611a1.7,1.7,0,0,0-.237-.345" fill="#173d7c"/>
        <path id="path3087" d="M126.78,177.743v-4.809h1.046a2.406,2.406,0,0,1,0,4.809Zm4.688-2.414a3.269,3.269,0,0,0-3.573-3.488h-2.388v7H127.9a3.284,3.284,0,0,0,3.573-3.508" fill="#173d7c"/>
        <path id="path3093" d="M110.752,176.292l-.125.067.831-2.016h.02l.586,1.446a5.5,5.5,0,0,0-1.312.5m3.845,2.544-3.114-7h-.039l-3.114,7h1.277v0l0,0a1.872,1.872,0,0,1,.169-.252s.264-.37.385-.509.3-.306.451-.454c.081-.07.17-.13.254-.2a2.22,2.22,0,0,1,.267-.181,4.777,4.777,0,0,1,1.187-.539l.1-.027.875,2.159Z" fill="#173d7c"/>
        <path id="path3099" d="M133.137,172.674a.193.193,0,0,0,.2-.211.188.188,0,0,0-.2-.2h-.224v.413Zm-.342-.52h.355a.294.294,0,0,1,.31.309.279.279,0,0,1-.206.285v.006a.441.441,0,0,1,.035.059l.211.408h-.131l-.227-.445h-.23v.445h-.118Zm.31,1.387a.854.854,0,1,0-.82-.854.829.829,0,0,0,.82.854m0-1.82a.966.966,0,1,1-.941.966.953.953,0,0,1,.941-.966" fill="#173d7c"/>
      </g>
    </g>
  </g>
</svg>
