<svg xmlns="http://www.w3.org/2000/svg" width="93" height="40" viewBox="0 0 93 40">
  <g id="Group_2344" data-name="Group 2344" transform="translate(-832 -6883)">
    <rect id="_1280px-Hyatt_Logo.svg" data-name="1280px-Hyatt_Logo.svg" width="93" height="40" transform="translate(832 6883)" fill="#d5edff"/>
    <g id="logo-resorts-tagline-soelden" transform="translate(860.528 6883)">
      <path id="Path_2915" data-name="Path 2915" d="M68.271,150.7a.211.211,0,1,0-.186-.209.211.211,0,0,0,.186.209m-1.514,0c.562,0,.843-.281.843-.607,0-.784-1.3-.455-1.3-.978,0-.188.155-.34.52-.34a1.084,1.084,0,0,1,.584.174l.1-.244a1.239,1.239,0,0,0-.686-.188c-.562,0-.818.281-.818.61,0,.8,1.292.464,1.292.986,0,.185-.157.329-.528.329a1.1,1.1,0,0,1-.705-.247l-.112.239a1.275,1.275,0,0,0,.818.267m-2.514-.281v-.688h1.07v-.261h-1.07v-.655h1.2v-.267h-1.52v2.138h1.548v-.267Zm-1.762.02h-.719v-.714h.7c.34,0,.523.112.523.36s-.183.354-.523.354M62.4,148.8c.312,0,.489.115.489.343s-.177.343-.489.343h-.627v-.688Zm.509.781a.509.509,0,0,0,.281-.475c0-.346-.281-.562-.767-.562h-.958v2.138h1.02c.539,0,.818-.211.818-.579a.517.517,0,0,0-.4-.531m-2.529,1.11h.3v-2.138h-.309Zm-.73-2.138-.775,1.756-.77-1.756h-.329l.941,2.138h.3l.938-2.138Zm-4.417,1.877v-.688H56.3v-.261h-1.07v-.655h1.208v-.267H54.926v2.138h1.548v-.267Zm-1.4-1.871v.919H52.6v-.919h-.306v2.138H52.6v-.952h1.228v.952h.3v-2.138Zm-3.054,2.138h.3v-1.871h.73v-.267H50.04v.267h.733Zm-2.916,0h.3v-1.871h.733v-.267H47.124v.267h.733Zm-2.318-.267v-.688H46.6v-.261H45.54v-.655h1.2v-.267H45.233v2.138h1.551v-.267ZM44.2,150.3a.9.9,0,0,1-.5.138.823.823,0,1,1,0-1.644.843.843,0,0,1,.621.247l.188-.188a1.07,1.07,0,0,0-.82-.329,1.093,1.093,0,1,0,0,2.183,1.267,1.267,0,0,0,.809-.281v-.843h-.281Z" transform="translate(-32.529 -110.709)" fill="#173d7c"/>
      <rect id="Rectangle_1303" data-name="Rectangle 1303" width="35.944" height="35.944" fill="#173d7c"/>
      <path id="Path_2916" data-name="Path 2916" d="M8.91,49.46h1.77l2.436,6.352h.025l2.45-6.352h1.77L13.829,57.8H12.453Z" transform="translate(-6.407 -35.564)" fill="#fff"/>
      <path id="Path_2917" data-name="Path 2917" d="M39.513,51.637h-.025L36.917,57.8H35.06l3.787-8.344h1.318L43.98,57.8H42.12Z" transform="translate(-25.21 -35.564)" fill="#fff"/>
      <path id="Path_2918" data-name="Path 2918" d="M92.013,51.637h-.025L89.417,57.8H87.56l3.79-8.344h1.315L96.48,57.8H94.62Z" transform="translate(-62.96 -35.564)" fill="#fff"/>
      <path id="Path_2919" data-name="Path 2919" d="M66.559,54.731,63.57,49.46h1.846L67.4,53.295l1.992-3.835h1.86l-3,5.271V57.8H66.559Z" transform="translate(-45.71 -35.564)" fill="#fff"/>
      <path id="Path_2920" data-name="Path 2920" d="M87.962,97.747v1.526l-1.231-1.526h-.343v2.248H86.8V98.466l1.231,1.528h.34V97.747Zm-3.456,1.9v-.624h1.079v-.346H84.506V98.1h1.216v-.351H84.09v2.248h1.686v-.351Zm-2.809,0V98.1h.542a.775.775,0,1,1,0,1.548Zm-.416.354h.978a1.128,1.128,0,1,0,0-2.248h-.964Zm-2.071,0h1.6v-.354H79.64v-1.9h-.416Zm-1.8-.337a.792.792,0,1,1,.787-.792.764.764,0,0,1-.787.792m0,.368a1.16,1.16,0,1,0-1.2-1.16,1.146,1.146,0,0,0,1.2,1.16m.312-2.509a.194.194,0,1,0-.191-.191.185.185,0,0,0,.191.191m-.621,0a.194.194,0,1,0-.194-.194.194.194,0,0,0,.194.194m-2.208,2.509c.612,0,.9-.309.9-.671,0-.826-1.326-.514-1.326-.995,0-.171.14-.306.486-.306a1.239,1.239,0,0,1,.615.177l.132-.326a1.4,1.4,0,0,0-.745-.2c-.612,0-.9.309-.9.674,0,.843,1.326.52,1.326,1.006,0,.166-.146.281-.494.281a1.219,1.219,0,0,1-.736-.247l-.143.326a1.43,1.43,0,0,0,.879.281" transform="translate(-55.156 -73.765)" fill="#e5d9c2"/>
    </g>
  </g>
</svg>
