<svg xmlns="http://www.w3.org/2000/svg" width="236.334" height="47.863" viewBox="0 0 236.334 47.863">
  <g id="Group_2217" data-name="Group 2217" transform="translate(-118.07 -3284.545)" opacity="0.32">
    <path id="Path_2157" data-name="Path 2157" d="M7188.465,1172.275l-19.666-4.141-18.443,4.141-22.46-4.141s4.721-.518-20.452,0-25.961-1.553-33.039,0-10.227,4.659-15.732,4.141-18.878,0-18.878,0l-11.575-4.141-12.023,4.141-6.293,9.835,10.227,5.694-2.292,11.793-19.734,10.466h88.1l54.377-4.007,42.821,2.451,37.7,4.9-6.067-16.4,10.4-14.9-13.373-13.977-23.6,4.141" transform="translate(-6871.033 2119)" fill="#c5dbff"/>
    <g id="Group_1659" data-name="Group 1659" transform="translate(118.07 3284.545)">
      <path id="Path_2156" data-name="Path 2156" d="M7035.073,1172.275l19.666-4.141,18.443,4.141,22.46-4.141s-4.721-.518,20.452,0,25.961-1.553,33.039,0,10.227,4.659,15.732,4.141,18.878,0,18.878,0l11.575-4.141,12.023,4.141,6.293,9.835-10.227,5.694,2.292,11.793,19.734,10.466h-88.1l-54.377-4.007-42.821,2.451-37.7,4.9,6.067-16.4-10.4-14.9,13.373-13.977,23.6,4.141" transform="translate(-6998.102 -1167.545)" fill="#b0ceff"/>
      <path id="Path_2157-2" data-name="Path 2157" d="M7188.465,1172.275l-19.666-4.141-18.443,4.141-22.46-4.141s4.721-.518-20.452,0-25.961-1.553-33.039,0-10.227,4.659-15.732,4.141-18.878,0-18.878,0l-11.575-4.141-12.023,4.141-6.293,9.835,10.227,5.694-2.292,11.793-19.734,10.466h88.1l54.377-4.007,42.821,2.451,37.7,4.9-6.067-16.4,10.4-14.9-13.373-13.977-23.6,4.141" transform="translate(-6991.103 -1167.545)" fill="#b0ceff"/>
    </g>
  </g>
</svg>
