<svg xmlns="http://www.w3.org/2000/svg" width="106" height="107" viewBox="0 0 106 107">
  <g id="Group_610" data-name="Group 610" transform="translate(-5 -4.969)">
    <ellipse id="Ellipse_63" data-name="Ellipse 63" cx="53" cy="53.5" rx="53" ry="53.5" transform="translate(5 4.969)" fill="#ff4a2e" opacity="0.13"/>
    <ellipse id="Ellipse_62" data-name="Ellipse 62" cx="37.5" cy="38" rx="37.5" ry="38" transform="translate(21 20.969)" fill="#ff4a2e" opacity="0.22"/>
    <ellipse id="Ellipse_61" data-name="Ellipse 61" cx="29" cy="28.5" rx="29" ry="28.5" transform="translate(29 29.969)" fill="#ff4a2e" opacity="0.73"/>
    <path id="play-svgrepo-com" d="M98.994,101.406a2.827,2.827,0,0,1-1.4-.373,3.143,3.143,0,0,1-1.555-2.743V75.115A3.139,3.139,0,0,1,97.6,72.372a2.807,2.807,0,0,1,2.858.036L120.26,84.263a2.877,2.877,0,0,1,0,4.875L100.45,101A2.837,2.837,0,0,1,98.994,101.406Z" transform="translate(-47.039 -28.412)" fill="#fff"/>
  </g>
</svg>
