<svg xmlns="http://www.w3.org/2000/svg" xmlns:xlink="http://www.w3.org/1999/xlink" width="351.42" height="148.701" viewBox="0 0 351.42 148.701">
  <defs>
    <clipPath id="clip-path">
      <rect id="Rectangle_1265" data-name="Rectangle 1265" width="239.65" height="114.355" fill="#173d7c"/>
    </clipPath>
    <clipPath id="clip-path-2">
      <rect id="Rectangle_1263" data-name="Rectangle 1263" width="188.218" height="76.221" fill="#77c4ff"/>
    </clipPath>
    <clipPath id="clip-path-3">
      <path id="Path_2850" data-name="Path 2850" d="M7.363,95.2,125.7,113.97,16.9,58.095Z" transform="translate(-7.363 -58.095)" fill="none"/>
    </clipPath>
    <linearGradient id="linear-gradient" x1="0.696" y1="1.197" x2="0.197" y2="0.114" gradientUnits="objectBoundingBox">
      <stop offset="0" stop-color="#46cee8"/>
      <stop offset="1" stop-color="#fff"/>
    </linearGradient>
    <clipPath id="clip-path-4">
      <path id="Path_2851" data-name="Path 2851" d="M29.351,0,21.5,39.191,130.3,95.065Z" transform="translate(-21.497)" fill="none"/>
    </clipPath>
    <linearGradient id="linear-gradient-2" x1="0.722" y1="0.965" x2="0.197" y2="0.114" xlink:href="#linear-gradient"/>
    <clipPath id="clip-path-5">
      <path id="Path_2852" data-name="Path 2852" d="M22.355,0,0,30.246,4.967,76.294,26.794,45.5Z" fill="none"/>
    </clipPath>
    <linearGradient id="linear-gradient-3" x1="0.097" y1="1.227" x2="0.117" y2="1.227" xlink:href="#linear-gradient"/>
    <clipPath id="clip-path-6">
      <path id="Path_2850-2" data-name="Path 2850" d="M0,9.292,58.58,0,4.72,27.66Z" transform="translate(0 0)" fill="none"/>
    </clipPath>
    <linearGradient id="linear-gradient-4" x1="0.696" y1="-0.197" x2="0.197" y2="0.886" xlink:href="#linear-gradient"/>
    <clipPath id="clip-path-7">
      <path id="Path_2851-2" data-name="Path 2851" d="M3.888,47.061,0,27.66,53.86,0Z" transform="translate(0 0)" fill="none"/>
    </clipPath>
    <linearGradient id="linear-gradient-5" x1="0.722" y1="0.035" x2="0.197" y2="0.886" xlink:href="#linear-gradient"/>
    <clipPath id="clip-path-8">
      <path id="Path_2852-2" data-name="Path 2852" d="M11.067,37.768,0,22.8,2.459,0l10.8,15.243Z" transform="translate(0)" fill="none"/>
    </clipPath>
    <linearGradient id="linear-gradient-6" x1="0.097" y1="-0.227" x2="0.117" y2="-0.227" xlink:href="#linear-gradient"/>
  </defs>
  <g id="Group_2265" data-name="Group 2265" transform="translate(-491.09 -281.933)">
    <g id="Group_2225" data-name="Group 2225" transform="translate(563.175 281.933)">
      <g id="Group_2224" data-name="Group 2224" clip-path="url(#clip-path)">
        <path id="Path_2849" data-name="Path 2849" d="M126.982,111.311l1.657-.634-8-.4-.066.209,4.744.8-.055.409h-5.136l1.178.554.05.435a92.239,92.239,0,0,1-9.728,1.184q-21.142.415-42.3.484c-3.9.018-7.813-.428-11.723-.624a14.485,14.485,0,0,0-2.444.141c-6.1.746-12.165.09-18.243-.156-4.258-.172-8.524-.268-12.8-.23l1.99.133c-7.169.429-14.33.865-21.546-.343l1.017.827c-2.571.242-3.171-.014-3.392-1.619C1.561,107.924.718,103.368.472,98.8.1,91.935.277,85.06.017,78.193A24.526,24.526,0,0,1,4.362,63.585c1.3-1.977.955-4.132,2.805-5.912l-.714-.24-2.33,2.974-.409-.041V57.795l-.874.253C.321,55.279.381,52.2.466,49.146c.233-8.386.578-16.771.812-25.157C1.31,22.871.884,21.75.806,20.627c-.093-1.33-.038-2.665-.048-4a6.3,6.3,0,0,0-.015-.8,32.126,32.126,0,0,1-.672-5.142A75.521,75.521,0,0,1,.885,2.5c.153-1.108,1.73-1.051,2.891-1.048q6.411.021,12.82.187c8.561.215,17.121.469,26.327.726L40.047.976c.816-.026,1.264-.081,1.7-.048,6.244.48,12.336-.442,18.5-.781C64.685-.1,69.186.1,73.662.093c3.451,0,6.9-.014,10.353-.013,4.047,0,8.1-.077,12.14.048,2.984.092,5.942.508,8.925.683q6.387.375,12.822.473L112.043.6c3.919-.957,11.582-.671,26.591.136a196.058,196.058,0,0,1,26.15,3.476L161.1,2.146l6.527.3.064-.138-6.588-1.3c6.2-.239,12.8-.64,19.4-.7,4.607-.042,9.219.438,13.837.586,5.576.178,11.16.269,16.741.364,2.624.044,5.251.008,7.924.232l-6.345.553.031.182,23.407.757V6.874l1.868-1.746v6.008l-1.432-1.309,3.11,23.52-.72.119-3.358-3.291-.394.042c0,.469-.011.939,0,1.408.407,15.186.911,30.372,1.119,45.559.03,2.19-1.334,4.393-2.109,6.582a9.709,9.709,0,0,0-.839,2.859l3.016-2.3c-.213,1.682-.377,2.98-.544,4.3l1.205-.395c-1.19,2.61,1.04,4.769,1.246,7.108.225,2.553.051,5.121.051,7.682l-.514.084-1.521-1.262c-.391,4.109-.757,7.941-1.132,11.884-.649.045-1.248.132-1.843.122-4.189-.072-8.4-.007-12.559-.284a148.149,148.149,0,0,0-22.411-.271c-5.406.454-10.885.644-16.338.714-10.611.134-21.248-.156-31.833.22-8.2.292-15.383-2.1-23.192-2.919" transform="translate(0 0)" fill="#173d7c"/>
      </g>
    </g>
    <g id="Group_2212" data-name="Group 2212" transform="translate(588.891 301)">
      <g id="Group_2211" data-name="Group 2211" clip-path="url(#clip-path-2)">
        <path id="Path_2824" data-name="Path 2824" d="M158.958,27.213H156.82c-11.1,0-22.193-.033-33.29.026-1.5.008-1.98-.351-1.964-1.914.072-7.051.04-14.1-.028-21.154-.013-1.327.335-1.806,1.734-1.8q16.645.072,33.29,0c1.3,0,1.67.434,1.675,1.7.017,4.315.061,4.32-4.231,4.322-7.513,0-15.027.032-22.54-.031-1.49-.012-2.14.261-2.142,1.963,0,1.684.726,1.852,2.084,1.843,6.877-.049,13.755-.028,20.632-.032h2.24a47.522,47.522,0,0,1-.07,4.837c-.036.343-.947.839-1.462.847-4.218.069-8.438.041-12.657.04-3.005,0-6.012.042-9.015-.027-1.231-.028-1.738.283-1.752,1.634-.014,1.408.481,1.742,1.81,1.734,8.553-.051,17.107-.025,25.661-.024h2.163Z" transform="translate(-79.365 -1.548)" fill="#77c4ff"/>
        <path id="Path_2825" data-name="Path 2825" d="M97.279,110.414c-3.951-.453-7.734-.591-11.381-1.371-6.367-1.362-8.652-4.645-8.369-11.16.276-6.354,2.631-9.466,8.837-10.892a50.884,50.884,0,0,1,23.538.1c5.349,1.289,7.5,4.2,7.632,9.679.015.636.013,1.273-.013,1.908-.242,5.925-2.589,9.022-8.407,10.225-3.937.814-7.995,1.038-11.837,1.506m-.205-19.373c-2.324.25-5.278.4-8.151.958a5.962,5.962,0,0,0-3.4,2.108c-2.856,3.943-.39,9.868,4.422,10.229a122.392,122.392,0,0,0,15.207-.021,6.385,6.385,0,0,0,4.174-2.068,6.609,6.609,0,0,0-4.2-10.583c-2.452-.343-4.946-.393-8.049-.623" transform="translate(-50.612 -55.939)" fill="#77c4ff"/>
        <path id="Path_2826" data-name="Path 2826" d="M390.407,17.2l5.051,10.428c-2.737,0-5.135.052-7.526-.053-.387-.017-.861-.677-1.092-1.14-1.007-2.015-1.925-4.075-2.91-6.1a13.081,13.081,0,0,0-.953-1.453l-.5.111a14.73,14.73,0,0,0-.229,1.73c-.035,1.85.036,3.7-.068,5.549-.027.471-.53,1.291-.85,1.308-2.118.118-4.245.061-6.467.061-.051-.688-.119-1.19-.12-1.693-.02-7.113.015-14.227-.082-21.339-.022-1.574.486-1.973,1.975-1.912,3.578.147,7.17.027,10.742.241,3.136.188,5.617,1.647,6.4,4.9.809,3.362.215,6.442-2.665,8.753-.221.178-.43.37-.71.612m-8.126-3.5a14.361,14.361,0,0,0,2.954-.847,2.294,2.294,0,0,0,.844-3.053c-.5-1.358-1.764-1.367-2.929-1.222-1.376.172-.751,1.337-.845,2.084a27.885,27.885,0,0,0-.024,3.037" transform="translate(-244.662 -1.755)" fill="#77c4ff"/>
        <path id="Path_2827" data-name="Path 2827" d="M12.589,96.69c1.691-2.625,3.3-4.944,4.705-7.377A2.977,2.977,0,0,1,20.5,87.6c1.36.128,2.742.027,4.229.027v22.411H18.592V98.085l-.449-.137L12.486,106.3l-5.7-8.641c-.1,1-.195,1.516-.2,2.031-.02,3-.054,6.009-.009,9.012.017,1.127-.39,1.545-1.516,1.492-1.49-.07-2.985-.017-4.6-.017C.412,109.507.33,109,.329,108.5c0-6.355.04-12.711-.024-19.066-.015-1.452.5-1.7,1.87-1.882,3.5-.477,5.773.7,7.192,3.978a41.131,41.131,0,0,0,3.221,5.162" transform="translate(-0.199 -57.104)" fill="#77c4ff"/>
        <path id="Path_2828" data-name="Path 2828" d="M491.472,10.751c-.675-3.463-1.5-4.366-3.783-4.389a3.838,3.838,0,0,0-4.045,2.886,13.994,13.994,0,0,0-.135,8.2,3.892,3.892,0,0,0,4,3.193c1.967.048,2.972-.727,3.764-2.889.1-.265.232-.516.4-.894l6.583,1.043a7.8,7.8,0,0,1-4.074,6.911,14.306,14.306,0,0,1-14.26.06c-2.493-1.313-3.769-3.661-4.4-6.369a18.749,18.749,0,0,1,.372-10.6c1.46-4.192,4.408-6.828,8.806-7.348a22.14,22.14,0,0,1,7.343.346,8.107,8.107,0,0,1,6.2,8.019c.009.423-.4,1.191-.7,1.232-1.986.28-3.993.407-6.079.591" transform="translate(-310.146 -0.265)" fill="#77c4ff"/>
        <path id="Path_2829" data-name="Path 2829" d="M249.017,10.473c-.889-3.68-1.657-4.463-4.115-4.378a3.658,3.658,0,0,0-3.871,3.276,29.536,29.536,0,0,0-.095,7.37,3.74,3.74,0,0,0,3.924,3.638c2.078.1,3.1-.691,3.987-3.091.059-.16.128-.316.273-.674l6.526,1.015a8.379,8.379,0,0,1-5.89,7.875,15.62,15.62,0,0,1-10.866-.142,8.979,8.979,0,0,1-5.613-6.183,19.4,19.4,0,0,1-.238-10.448c1.355-5.443,5.55-8.7,11.632-8.73a17.188,17.188,0,0,1,6.52,1.343c3.126,1.306,4.319,4.179,4.575,7.414a1.455,1.455,0,0,1-.83,1.147c-1.934.273-3.89.39-5.919.568" transform="translate(-151.784 0)" fill="#77c4ff"/>
        <path id="Path_2830" data-name="Path 2830" d="M265.231,87.863c2.36,0,4.549-.063,6.73.052.452.024,1.043.628,1.273,1.108,1.567,3.28,3.052,6.6,4.572,9.9a2.714,2.714,0,0,0,1.039,1.264c0-3.031-.016-6.062,0-9.093.025-3.809-.4-3.172,3.191-3.242a6.783,6.783,0,0,0,.865-.007c1.5-.227,1.982.333,1.959,1.9-.092,6.237-.039,12.476-.047,18.714,0,.564-.055,1.127-.1,1.923-2.328,0-4.564.066-6.788-.057-.434-.024-.97-.71-1.216-1.21-1.5-3.056-2.928-6.148-4.388-9.223a3.147,3.147,0,0,0-1.167-1.41c0,3.031.015,6.062,0,9.093-.02,3.189.3,2.773-2.742,2.823-1.025.017-2.05,0-3.184,0Z" transform="translate(-173.2 -57.335)" fill="#77c4ff"/>
        <path id="Path_2831" data-name="Path 2831" d="M486.075,110.319V87.944c2.355,0,4.6-.066,6.826.058.428.024.956.731,1.2,1.238,1.484,3.127,2.9,6.289,4.339,9.436a4.429,4.429,0,0,0,1.109,1.592V88.1H505.5c.038.5.118,1.053.118,1.608,0,6.3-.068,12.594.01,18.89.019,1.57-.492,2.034-1.981,1.9a22.6,22.6,0,0,0-3.981,0,2.071,2.071,0,0,1-2.323-1.533c-1.394-3.106-2.894-6.164-4.36-9.237a3.031,3.031,0,0,0-.971-1.244v11.826Z" transform="translate(-317.414 -57.417)" fill="#77c4ff"/>
        <path id="Path_2832" data-name="Path 2832" d="M17.949,21.31v5.672H.227C.189,26.43.119,25.866.116,25.3.083,18.31.108,11.318,0,4.327-.025,2.7.5,2.258,2.072,2.292c4.447.1,8.9.079,13.345.023,1.3-.016,1.837.314,1.84,1.729.01,4.294.066,4.294-4.282,4.3-1.329,0-2.661.061-3.986-.009-1.521-.08-1.283.966-1.282,1.86s-.282,1.946,1.246,1.9c1.79-.052,3.583.025,5.373-.017.942-.023,1.3.3,1.354,1.282.247,4.451.276,4.449-4.078,4.449a14.964,14.964,0,0,1-1.9-.013c-1.573-.2-2.175.375-2.059,2.006.079,1.112.537,1.345,1.507,1.334,2.657-.03,5.315,0,7.973.014a5.379,5.379,0,0,1,.83.162" transform="translate(0 -1.495)" fill="#77c4ff"/>
        <path id="Path_2833" data-name="Path 2833" d="M217.762,87.887c0,5.54.188,10.8-.065,16.043-.172,3.575-2.7,6.055-6.513,6.606a23.11,23.11,0,0,1-6.693-.172,5.687,5.687,0,0,1-5.165-5.33c-.314-5.622-.093-11.275-.093-17.138,1.711,0,3.54.011,5.369,0,1.227-.01.983.892.989,1.6.034,4.335.036,8.669.072,13,.012,1.5.426,2.765,2.192,3.022,2.2.319,3.3-.524,3.344-2.823.086-4.334.119-8.67.045-13-.025-1.472.453-1.928,1.873-1.823,1.483.109,2.98.024,4.646.024" transform="translate(-130.052 -57.366)" fill="#77c4ff"/>
        <path id="Path_2834" data-name="Path 2834" d="M388.375,94.782c-1.159,4.64-2.359,9.271-3.45,13.927-.295,1.26-.744,1.878-2.152,1.768-1.653-.129-3.324-.03-5.237-.03.436-1.45.784-2.655,1.16-3.851,1.817-5.779,3.668-11.548,5.438-17.341.306-1,.726-1.42,1.8-1.374,1.845.079,3.7-.038,5.542.062a1.883,1.883,0,0,1,1.431.836c2.573,7.1,5.067,14.225,7.684,21.646-2.4,0-4.562.065-6.713-.065-.354-.022-.8-.851-.961-1.381-1.265-4.2-2.469-8.415-3.7-12.625-.16-.547-.345-1.087-.518-1.63l-.326.059" transform="translate(-246.537 -57.385)" fill="#77c4ff"/>
        <path id="Path_2835" data-name="Path 2835" d="M311.945,27.646c0-1.729,0-3.163,0-4.6-.013-4.162-.062-8.325-.023-12.487.012-1.25-.376-1.8-1.684-1.718-1.267.082-2.543-.02-3.814.024-.995.035-1.426-.291-1.49-1.369-.282-4.77-.314-4.769,4.485-4.774,5.03,0,10.059.034,15.088-.034,1.336-.018,1.808.361,1.81,1.75.007,4.42.06,4.42-4.355,4.422-2.554,0-2.553,0-2.558,2.507-.01,4.856-.073,9.713,0,14.568.021,1.413-.46,1.8-1.793,1.731-1.779-.1-3.567-.024-5.666-.024" transform="translate(-199.059 -1.757)" fill="#77c4ff"/>
        <path id="Path_2836" data-name="Path 2836" d="M68.961,21.028h9.625v5.962H61.708c-.041-.553-.114-1.1-.116-1.651-.023-7.041,0-14.083-.077-21.123-.015-1.389.324-2.029,1.816-1.89,1.812.169,4.229-.445,5.277.5.915.827.334,3.353.345,5.128.025,4.26.008,8.52.008,13.071" transform="translate(-40.17 -1.492)" fill="#77c4ff"/>
        <path id="Path_2837" data-name="Path 2837" d="M347.553,93.412h-6.221V110.33h-6.8V93.441h-6.2V88.066a11.223,11.223,0,0,1,1.3-.148c5.426-.011,10.853.031,16.279-.036,1.31-.016,1.754.4,1.653,1.683-.093,1.192-.02,2.4-.02,3.847" transform="translate(-214.41 -57.388)" fill="#77c4ff"/>
        <path id="Path_2838" data-name="Path 2838" d="M450.62,15.432c0,3.578-.051,7.158.027,10.734.029,1.316-.421,1.732-1.7,1.647a40.7,40.7,0,0,0-4.326-.011c-1.019.04-1.453-.3-1.452-1.371q.005-10.995-.071-21.989c-.007-1.1.383-1.573,1.514-1.531,1.5.056,3,.06,4.5-.012,1.222-.059,1.595.439,1.576,1.625-.058,3.635-.021,7.271-.021,10.908Z" transform="translate(-289.352 -1.89)" fill="#77c4ff"/>
        <path id="Path_2839" data-name="Path 2839" d="M458.83,87.885c0,7.374.015,14.419-.042,21.464a1.429,1.429,0,0,1-.942,1.028c-1.837.1-3.683.049-5.642.049a13.526,13.526,0,0,1-.167-1.445c-.015-6.471.011-12.943-.044-19.414-.011-1.243.289-1.792,1.636-1.706,1.653.1,3.318.025,5.2.025" transform="translate(-295.158 -57.368)" fill="#77c4ff"/>
        <path id="Path_2840" data-name="Path 2840" d="M215.074,181.7a15.728,15.728,0,0,1-2.486.329c-.456-.01-.9-.4-1.357-.6a10.524,10.524,0,0,0-1.908-.754c-.193-.042-.508.479-.767.742a8.868,8.868,0,0,0,1.606,1.32,24.358,24.358,0,0,0,2.461.8,3.7,3.7,0,0,1,2.7,3.623,4.147,4.147,0,0,1-2.439,4.22,7.98,7.98,0,0,1-6.237.222c-1.807-.653-2.559-1.962-2.483-4.207a10.72,10.72,0,0,1,2.314-.349c.488.026.965.485,1.423.785.586.382,1.117,1.049,1.73,1.126.508.064,1.1-.551,1.655-.865-.382-.44-.682-1.064-1.165-1.281-.937-.421-1.99-.571-2.969-.909a3.643,3.643,0,0,1-2.716-3.427,4.052,4.052,0,0,1,2.229-4.166,7.341,7.341,0,0,1,6.519-.091c1.374.608,1.825,1.826,1.891,3.48" transform="translate(-133.318 -115.912)" fill="#77c4ff"/>
        <path id="Path_2841" data-name="Path 2841" d="M308.092,191.983a3.536,3.536,0,0,1-.42.13c-5.137.307-5.145.31-6.639-4.538-.932-3.025-1.834-6.06-2.849-9.418a25.7,25.7,0,0,1,3.97.069c.443.073.947.876,1.1,1.434a76.9,76.9,0,0,0,2.285,7.742c.4-1.507.8-3.012,1.2-4.521.16-.614.292-1.236.446-1.852.791-3.179,1.328-3.48,4.919-2.564l-4.008,13.517" transform="translate(-194.718 -116.246)" fill="#77c4ff"/>
        <path id="Path_2842" data-name="Path 2842" d="M351.38,192.376a22.008,22.008,0,0,1-3.627-.062,2.1,2.1,0,0,1-1.217-1.308c-.838-2.614-1.557-5.267-2.318-7.905l-.45-.035c-.548,2.2-1.091,4.395-1.644,6.59-.708,2.81-.711,2.812-3.613,2.727-.4-.012-.792-.068-1.422-.125,1.01-3.222,1.987-6.336,2.962-9.449.172-.55.337-1.1.509-1.653.906-2.891.908-2.812,4.016-2.889a2.316,2.316,0,0,1,2.668,1.957c1.079,3.465,2.391,6.857,3.6,10.283.186.527.312,1.074.54,1.871" transform="translate(-220.124 -116.408)" fill="#77c4ff"/>
        <path id="Path_2843" data-name="Path 2843" d="M180.394,188.966v3.282h-9.918c0-2.113,0-4.172,0-6.231,0-2.079.017-4.159-.01-6.238-.011-.887.212-1.425,1.247-1.409,2.367.037,4.736.03,7.1.006.874-.009,1.281.32,1.218,1.225-.044.625-.009,1.255-.009,2.12h-5.193c-.044.772-.075,1.316-.117,2.06.715.051,1.319.126,1.924.133,2.859.032,2.883.056,2.347,3.209-.913,0-1.875.045-2.832-.011-1.255-.075-1.722.387-1.193,1.855Z" transform="translate(-111.317 -116.478)" fill="#77c4ff"/>
        <path id="Path_2844" data-name="Path 2844" d="M140.743,181.589v2.4h4.34c-.252,1.235.932,2.683-.841,3.183a14.394,14.394,0,0,1-3.612.055v4.961h-4.234c0-1.055,0-2.069,0-3.083,0-2.891.128-5.789-.037-8.671-.107-1.861.608-2.3,2.281-2.175,1.552.119,3.12.024,4.682.023,2.935,0,2.955.025,2.4,3.3Z" transform="translate(-89.037 -116.394)" fill="#77c4ff"/>
        <path id="Path_2845" data-name="Path 2845" d="M252.191,181.652l-3.641.178v10.385h-4.224c0-1.8,0-3.615,0-5.432a21.2,21.2,0,0,1,.027-2.767c.243-1.817-.459-2.561-2.272-2.293-1.281.189-1.677-.391-1.7-1.663-.025-1.391.471-1.809,1.811-1.764,2.478.083,4.962.023,7.443.026,3.082,0,3.082,0,2.555,3.332" transform="translate(-156.972 -116.426)" fill="#77c4ff"/>
        <path id="Path_2846" data-name="Path 2846" d="M384.113,178.669c4.126-.584,4.129-.584,4.14,3.186.006,2.292,0,4.584,0,7l3.5.166v3.421c-2.3,0-4.576.031-6.849-.04-.272-.009-.751-.569-.754-.878-.05-4.253-.034-8.507-.034-12.851" transform="translate(-250.83 -116.489)" fill="#77c4ff"/>
        <path id="Path_2847" data-name="Path 2847" d="M285.255,192.052H281.13c0-4.363-.024-8.623.046-12.881.006-.349.624-.93,1.023-.993,2.793-.441,3.057-.179,3.056,2.622,0,3.688,0,7.377,0,11.252" transform="translate(-183.579 -116.241)" fill="#77c4ff"/>
      </g>
    </g>
    <g id="Group_2232" data-name="Group 2232" transform="matrix(0.891, 0.454, -0.454, 0.891, 529.823, 289.952)">
      <g id="Group_2227" data-name="Group 2227" transform="translate(4.967 39.191)">
        <g id="Group_2226" data-name="Group 2226" clip-path="url(#clip-path-3)">
          <rect id="Rectangle_1266" data-name="Rectangle 1266" width="129.906" height="90.275" transform="translate(-16.69 5.534) rotate(-18.343)" fill="url(#linear-gradient)"/>
        </g>
      </g>
      <g id="Group_2229" data-name="Group 2229" transform="translate(14.502)">
        <g id="Group_2228" data-name="Group 2228" clip-path="url(#clip-path-4)">
          <rect id="Rectangle_1267" data-name="Rectangle 1267" width="133.188" height="124.474" transform="translate(-28.397 9.415) rotate(-18.343)" fill="url(#linear-gradient-2)"/>
        </g>
      </g>
      <g id="Group_2231" data-name="Group 2231">
        <g id="Group_2230" data-name="Group 2230" clip-path="url(#clip-path-5)">
          <rect id="Rectangle_1268" data-name="Rectangle 1268" width="33.222" height="78.306" transform="translate(-6.502 0.558) rotate(-4.907)" fill="url(#linear-gradient-3)"/>
        </g>
      </g>
    </g>
    <g id="Group_2233" data-name="Group 2233" transform="matrix(-0.891, 0.454, -0.454, -0.891, 844.701, 323.865)">
      <g id="Group_2227-2" data-name="Group 2227" transform="translate(2.459 0)">
        <g id="Group_2226-2" data-name="Group 2226" transform="translate(0 0)" clip-path="url(#clip-path-6)">
          <rect id="Rectangle_1266-2" data-name="Rectangle 1266" width="64.308" height="44.69" transform="matrix(0.949, 0.315, -0.315, 0.949, 5.801, -17.498)" fill="url(#linear-gradient-4)"/>
        </g>
      </g>
      <g id="Group_2229-2" data-name="Group 2229" transform="translate(7.179 0)">
        <g id="Group_2228-2" data-name="Group 2228" transform="translate(0 0)" clip-path="url(#clip-path-7)">
          <rect id="Rectangle_1267-2" data-name="Rectangle 1267" width="65.933" height="61.619" transform="matrix(0.949, 0.315, -0.315, 0.949, 5.334, -16.088)" fill="url(#linear-gradient-5)"/>
        </g>
      </g>
      <g id="Group_2231-2" data-name="Group 2231" transform="translate(0 9.292)">
        <g id="Group_2230-2" data-name="Group 2230" clip-path="url(#clip-path-8)">
          <rect id="Rectangle_1268-2" data-name="Rectangle 1268" width="16.446" height="38.765" transform="translate(0.097 -1.13) rotate(4.907)" fill="url(#linear-gradient-6)"/>
        </g>
      </g>
    </g>
  </g>
</svg>
