<svg xmlns="http://www.w3.org/2000/svg" width="18" height="31.32" viewBox="0 0 18 31.32">
  <g id="location-svgrepo-com" transform="translate(-54.643)">
    <path id="Path_425" data-name="Path 425" d="M63.643,0a8.833,8.833,0,0,0-9,8.635,8.269,8.269,0,0,0,.871,3.71c.012.025.024.049.037.074l6.8,12.633a1.483,1.483,0,0,0,2.584,0l6.8-12.629c.012-.022.023-.044.033-.066a8.268,8.268,0,0,0,.877-3.721A8.833,8.833,0,0,0,63.643,0Zm0,13.155a4.624,4.624,0,0,1-4.711-4.52,4.715,4.715,0,0,1,9.422,0A4.624,4.624,0,0,1,63.643,13.155Z" fill="#163d7e"/>
    <path id="Path_426" data-name="Path 426" d="M105.983,249.018H95.968a1.26,1.26,0,0,0,0,2.52h10.015a1.26,1.26,0,1,0,0-2.52Z" transform="translate(-37.333 -220.219)" fill="#163d7e"/>
  </g>
</svg>
