<svg xmlns="http://www.w3.org/2000/svg" width="23.925" height="23" viewBox="0 0 23.925 23">
  <g id="download-svgrepo-com_1_" data-name="download-svgrepo-com (1)" transform="translate(-27.9 -4)">
    <g id="Group_346" data-name="Group 346" transform="translate(27.9)">
      <g id="Group_345" data-name="Group 345" transform="translate(0)">
        <path id="Path_427" data-name="Path 427" d="M145.479,4a.948.948,0,0,0-.948.948V19.2l-3.24-3.24a.947.947,0,0,0-1.339,1.339l4.855,4.854a.945.945,0,0,0,1.333,0l4.854-4.854a.947.947,0,0,0-1.339-1.339l-3.24,3.24V4.942A.93.93,0,0,0,145.479,4Z" transform="translate(-133.516)" fill="#fff"/>
        <path id="Path_428" data-name="Path 428" d="M51.825,362.441v-5.494a.948.948,0,0,0-1.9,0V361.5H29.79v-4.551a.945.945,0,1,0-1.89,0v5.494a.943.943,0,0,0,.948.942h22.03A.943.943,0,0,0,51.825,362.441Z" transform="translate(-27.9 -336.384)" fill="#fff"/>
      </g>
    </g>
  </g>
</svg>
